<svg width="32" height="32" viewBox="0 0 32 32" fill="none" xmlns="http://www.w3.org/2000/svg">
<g clip-path="url(#clip0_107_209)">
<circle cx="16" cy="16" r="16" fill="#C8171F"/>
<path d="M12.0597 9.06657C9.4517 10.4689 7.96875 12.1418 7.30398 13.8148C6.35795 14.725 6 15.6107 6 16.9392C6 20.7771 9.65625 24 14.9489 24C17.3778 24 19.9858 23.3357 22.2102 22.0564C23.2585 21.466 23.7699 21.0478 23.7699 20.6787C23.7699 20.5065 23.642 20.3835 23.3864 20.3835C23.0795 20.3835 21.0597 21.9826 17.5568 21.9826C12.8011 21.9826 9.09375 18.932 9.09375 15.3401C9.09375 11.699 12.5199 9.18958 17.7358 9.18958C21.0085 9.18958 22.4659 10.1245 22.9773 10.1245C23.5909 10.1245 24 9.70622 24 8.89436C24 7.29523 23.233 7 20.1136 7C17.4034 7 14.5398 7.71346 12.0597 9.06657Z" fill="#FFBB00"/>
</g>
<defs>
<clipPath id="clip0_107_209">
<rect width="32" height="32" fill="white"/>
</clipPath>
</defs>
</svg>
