<svg width="318" height="94" viewBox="0 0 318 94" fill="none" xmlns="http://www.w3.org/2000/svg">
<mask id="path-1-outside-1_22_56" maskUnits="userSpaceOnUse" x="0" y="0" width="318" height="94" fill="black">
<rect fill="white" width="318" height="94"/>
<path d="M15.9378 37.8065C18.4551 31.2258 24.0707 24.6452 33.9464 19.129C43.3379 13.8065 54.1818 11 64.4447 11C76.2567 11 79.1613 12.1613 79.1613 18.4516C79.1613 21.6452 77.6122 23.2903 75.2885 23.2903C73.3521 23.2903 67.8334 19.6129 55.4404 19.6129C35.6891 19.6129 22.7152 29.4839 22.7152 43.8065C22.7152 57.9355 36.7541 69.9355 54.7627 69.9355C68.027 69.9355 75.6758 63.6452 76.8376 63.6452C77.8058 63.6452 78.29 64.129 78.29 64.8065C78.29 66.2581 76.3535 67.9032 72.3839 70.2258C63.9606 75.2581 54.0849 77.871 44.887 77.871C24.8453 77.871 11 65.1935 11 50.0968C11 44.871 12.3555 41.3871 15.9378 37.8065ZM98.0961 72.2581C99.5484 74.7742 102.163 76.2258 105.164 76.2258C109.811 76.2258 112.329 72.9355 113.878 72.9355C115.04 72.9355 115.814 73.7097 115.814 74.6774C115.814 77.6774 106.81 82.129 102.066 82.129C98.5802 82.129 94.1265 80.6774 89.7696 80.6774C86.1876 80.6774 83.283 76.8064 83.283 70.3226C83.283 65.9677 86.478 57.6452 91.8028 51.5484C98.0961 44.3871 106.035 40.5161 109.134 40.5161C112.619 40.5161 114.749 43.3226 114.749 48.0645C114.749 50.871 113.878 52.4194 113.491 53.2903C112.813 55.0323 112.91 56.871 112.232 58.5161C110.199 63.8387 104.97 69.3548 98.0961 72.2581ZM96.8374 67.9032C104.196 63.0645 108.069 55.8064 108.069 51.2581C108.069 49.7097 107.488 48.9355 106.616 48.9355C102.937 48.9355 97.1279 56.1936 96.8374 67.9032ZM148.326 22.7097C149.584 22.7097 150.068 23.3871 150.068 24.9355C150.068 26.871 147.841 31.7097 144.065 40.129C137.288 55.129 133.125 64.6129 133.125 69.1613C133.125 71.1935 134.19 72.2581 136.029 72.2581C141.839 72.2581 145.324 66.5484 147.261 66.5484C148.229 66.5484 149.003 67.3226 149.003 68.7742C149.003 70.3226 147.067 72.9355 142.904 76.129C136.417 80.9677 130.414 83 129.639 83C127.993 83 126.928 81.2581 125.476 80.5806C122.668 79.3226 120.345 78.6452 120.345 76.6129C120.345 75.8387 120.829 74.5806 120.829 73.129C120.829 72.8387 120.732 72.4516 120.732 72.1613C120.732 68.7742 123.152 63.1613 126.541 54.8387C131.576 42.4516 135.061 35.1936 135.061 32.0968C135.061 30.7419 134.868 29.7742 134.868 29.0968C134.868 28.4194 135.061 28.129 135.545 27.8387C137.094 26.9677 140.193 25.9032 144.646 24.0645C146.389 23.3871 147.551 22.7097 148.326 22.7097ZM180.851 22.7097C182.11 22.7097 182.594 23.3871 182.594 24.9355C182.594 26.871 180.367 31.7097 176.591 40.129C169.814 55.129 165.651 64.6129 165.651 69.1613C165.651 71.1935 166.716 72.2581 168.555 72.2581C174.365 72.2581 177.85 66.5484 179.786 66.5484C180.755 66.5484 181.529 67.3226 181.529 68.7742C181.529 70.3226 179.593 72.9355 175.43 76.129C168.943 80.9677 162.94 83 162.165 83C160.519 83 159.454 81.2581 158.002 80.5806C155.194 79.3226 152.87 78.6452 152.87 76.6129C152.87 75.8387 153.355 74.5806 153.355 73.129C153.355 72.8387 153.258 72.4516 153.258 72.1613C153.258 68.7742 155.678 63.1613 159.067 54.8387C164.102 42.4516 167.587 35.1936 167.587 32.0968C167.587 30.7419 167.393 29.7742 167.393 29.0968C167.393 28.4194 167.587 28.129 168.071 27.8387C169.62 26.9677 172.719 25.9032 177.172 24.0645C178.915 23.3871 180.077 22.7097 180.851 22.7097ZM212.699 61.7097C206.793 71 202.049 76.0323 199.919 77.1935C198.95 77.7742 197.982 77.9677 197.208 78.4516C194.787 80 193.238 81.2581 191.882 81.2581C189.075 81.2581 186.17 76.7097 186.17 75.1613C186.17 74.9677 186.751 70.2258 188.881 62.9677C191.882 53.0968 194.4 47.1936 196.143 45.2581C197.208 44.0968 198.273 43.9032 198.854 43.5161C200.015 42.7419 201.758 40.6129 204.275 40.6129C206.502 40.6129 208.342 45.6452 208.342 46.2258C208.342 47.1936 207.18 49.7097 205.147 54.2581C201.855 61.6129 199.531 65.871 199.531 67.6129C199.531 68.4839 199.919 68.9677 200.693 68.9677C203.888 68.9677 208.148 59.4839 215.603 47.9677C216.862 45.9355 221.509 44.0968 222.09 44.0968C224.22 44.0968 225.285 46.8065 225.285 50.1936C225.285 56.4839 222.187 63.6452 222.187 69.1613C222.187 71.6774 223.059 73.3226 223.059 74.4839C223.059 76.9032 217.153 81.5484 214.732 81.5484C212.699 81.5484 210.569 78.1613 210.569 76.9032C210.569 76.129 211.343 71.0968 212.699 61.7097ZM269.308 36.9355H266.791C263.692 36.9355 262.821 35.0968 258.851 31.8065C253.333 27.2581 250.041 25.0323 250.041 24.0645C250.041 23.2903 251.106 23.1936 253.042 23.1936C254.688 23.1936 256.044 23.1936 257.109 23.1936C260.788 23.1936 261.853 23.3871 263.402 25.4194C268.146 31.7097 270.276 35.7742 270.276 36.3548C270.276 36.6452 269.986 36.9355 269.308 36.9355ZM298.063 50.871C297.483 51.6452 297.192 52.4194 297.192 53.1936C297.192 56.3871 303.969 62.0968 303.969 68.7742C303.969 75.3548 295.449 83 285.09 83C278.699 83 275.214 81.0645 275.214 78.1613C275.214 74.6774 280.636 69.7419 282.766 69.7419C286.542 69.7419 286.929 76.6129 290.221 76.6129C291.189 76.6129 291.77 75.9355 291.77 74.5806C291.77 64.6129 284.702 62.4839 284.702 57.1613C284.702 54.8387 285.961 52.8065 288.285 50.4839C293.9 44.871 300.097 41.871 302.033 41.871C303.873 41.871 306.39 43.4194 306.39 45.0645C306.39 50.7742 305.131 52.9032 302.517 52.9032C300.678 52.9032 299.032 52.129 298.063 50.871Z"/>
</mask>
<path d="M15.9378 37.8065C18.4551 31.2258 24.0707 24.6452 33.9464 19.129C43.3379 13.8065 54.1818 11 64.4447 11C76.2567 11 79.1613 12.1613 79.1613 18.4516C79.1613 21.6452 77.6122 23.2903 75.2885 23.2903C73.3521 23.2903 67.8334 19.6129 55.4404 19.6129C35.6891 19.6129 22.7152 29.4839 22.7152 43.8065C22.7152 57.9355 36.7541 69.9355 54.7627 69.9355C68.027 69.9355 75.6758 63.6452 76.8376 63.6452C77.8058 63.6452 78.29 64.129 78.29 64.8065C78.29 66.2581 76.3535 67.9032 72.3839 70.2258C63.9606 75.2581 54.0849 77.871 44.887 77.871C24.8453 77.871 11 65.1935 11 50.0968C11 44.871 12.3555 41.3871 15.9378 37.8065ZM98.0961 72.2581C99.5484 74.7742 102.163 76.2258 105.164 76.2258C109.811 76.2258 112.329 72.9355 113.878 72.9355C115.04 72.9355 115.814 73.7097 115.814 74.6774C115.814 77.6774 106.81 82.129 102.066 82.129C98.5802 82.129 94.1265 80.6774 89.7696 80.6774C86.1876 80.6774 83.283 76.8064 83.283 70.3226C83.283 65.9677 86.478 57.6452 91.8028 51.5484C98.0961 44.3871 106.035 40.5161 109.134 40.5161C112.619 40.5161 114.749 43.3226 114.749 48.0645C114.749 50.871 113.878 52.4194 113.491 53.2903C112.813 55.0323 112.91 56.871 112.232 58.5161C110.199 63.8387 104.97 69.3548 98.0961 72.2581ZM96.8374 67.9032C104.196 63.0645 108.069 55.8064 108.069 51.2581C108.069 49.7097 107.488 48.9355 106.616 48.9355C102.937 48.9355 97.1279 56.1936 96.8374 67.9032ZM148.326 22.7097C149.584 22.7097 150.068 23.3871 150.068 24.9355C150.068 26.871 147.841 31.7097 144.065 40.129C137.288 55.129 133.125 64.6129 133.125 69.1613C133.125 71.1935 134.19 72.2581 136.029 72.2581C141.839 72.2581 145.324 66.5484 147.261 66.5484C148.229 66.5484 149.003 67.3226 149.003 68.7742C149.003 70.3226 147.067 72.9355 142.904 76.129C136.417 80.9677 130.414 83 129.639 83C127.993 83 126.928 81.2581 125.476 80.5806C122.668 79.3226 120.345 78.6452 120.345 76.6129C120.345 75.8387 120.829 74.5806 120.829 73.129C120.829 72.8387 120.732 72.4516 120.732 72.1613C120.732 68.7742 123.152 63.1613 126.541 54.8387C131.576 42.4516 135.061 35.1936 135.061 32.0968C135.061 30.7419 134.868 29.7742 134.868 29.0968C134.868 28.4194 135.061 28.129 135.545 27.8387C137.094 26.9677 140.193 25.9032 144.646 24.0645C146.389 23.3871 147.551 22.7097 148.326 22.7097ZM180.851 22.7097C182.11 22.7097 182.594 23.3871 182.594 24.9355C182.594 26.871 180.367 31.7097 176.591 40.129C169.814 55.129 165.651 64.6129 165.651 69.1613C165.651 71.1935 166.716 72.2581 168.555 72.2581C174.365 72.2581 177.85 66.5484 179.786 66.5484C180.755 66.5484 181.529 67.3226 181.529 68.7742C181.529 70.3226 179.593 72.9355 175.43 76.129C168.943 80.9677 162.94 83 162.165 83C160.519 83 159.454 81.2581 158.002 80.5806C155.194 79.3226 152.87 78.6452 152.87 76.6129C152.87 75.8387 153.355 74.5806 153.355 73.129C153.355 72.8387 153.258 72.4516 153.258 72.1613C153.258 68.7742 155.678 63.1613 159.067 54.8387C164.102 42.4516 167.587 35.1936 167.587 32.0968C167.587 30.7419 167.393 29.7742 167.393 29.0968C167.393 28.4194 167.587 28.129 168.071 27.8387C169.62 26.9677 172.719 25.9032 177.172 24.0645C178.915 23.3871 180.077 22.7097 180.851 22.7097ZM212.699 61.7097C206.793 71 202.049 76.0323 199.919 77.1935C198.95 77.7742 197.982 77.9677 197.208 78.4516C194.787 80 193.238 81.2581 191.882 81.2581C189.075 81.2581 186.17 76.7097 186.17 75.1613C186.17 74.9677 186.751 70.2258 188.881 62.9677C191.882 53.0968 194.4 47.1936 196.143 45.2581C197.208 44.0968 198.273 43.9032 198.854 43.5161C200.015 42.7419 201.758 40.6129 204.275 40.6129C206.502 40.6129 208.342 45.6452 208.342 46.2258C208.342 47.1936 207.18 49.7097 205.147 54.2581C201.855 61.6129 199.531 65.871 199.531 67.6129C199.531 68.4839 199.919 68.9677 200.693 68.9677C203.888 68.9677 208.148 59.4839 215.603 47.9677C216.862 45.9355 221.509 44.0968 222.09 44.0968C224.22 44.0968 225.285 46.8065 225.285 50.1936C225.285 56.4839 222.187 63.6452 222.187 69.1613C222.187 71.6774 223.059 73.3226 223.059 74.4839C223.059 76.9032 217.153 81.5484 214.732 81.5484C212.699 81.5484 210.569 78.1613 210.569 76.9032C210.569 76.129 211.343 71.0968 212.699 61.7097ZM269.308 36.9355H266.791C263.692 36.9355 262.821 35.0968 258.851 31.8065C253.333 27.2581 250.041 25.0323 250.041 24.0645C250.041 23.2903 251.106 23.1936 253.042 23.1936C254.688 23.1936 256.044 23.1936 257.109 23.1936C260.788 23.1936 261.853 23.3871 263.402 25.4194C268.146 31.7097 270.276 35.7742 270.276 36.3548C270.276 36.6452 269.986 36.9355 269.308 36.9355ZM298.063 50.871C297.483 51.6452 297.192 52.4194 297.192 53.1936C297.192 56.3871 303.969 62.0968 303.969 68.7742C303.969 75.3548 295.449 83 285.09 83C278.699 83 275.214 81.0645 275.214 78.1613C275.214 74.6774 280.636 69.7419 282.766 69.7419C286.542 69.7419 286.929 76.6129 290.221 76.6129C291.189 76.6129 291.77 75.9355 291.77 74.5806C291.77 64.6129 284.702 62.4839 284.702 57.1613C284.702 54.8387 285.961 52.8065 288.285 50.4839C293.9 44.871 300.097 41.871 302.033 41.871C303.873 41.871 306.39 43.4194 306.39 45.0645C306.39 50.7742 305.131 52.9032 302.517 52.9032C300.678 52.9032 299.032 52.129 298.063 50.871Z" fill="#FFBB00"/>
<path d="M15.9378 37.8065C18.4551 31.2258 24.0707 24.6452 33.9464 19.129C43.3379 13.8065 54.1818 11 64.4447 11C76.2567 11 79.1613 12.1613 79.1613 18.4516C79.1613 21.6452 77.6122 23.2903 75.2885 23.2903C73.3521 23.2903 67.8334 19.6129 55.4404 19.6129C35.6891 19.6129 22.7152 29.4839 22.7152 43.8065C22.7152 57.9355 36.7541 69.9355 54.7627 69.9355C68.027 69.9355 75.6758 63.6452 76.8376 63.6452C77.8058 63.6452 78.29 64.129 78.29 64.8065C78.29 66.2581 76.3535 67.9032 72.3839 70.2258C63.9606 75.2581 54.0849 77.871 44.887 77.871C24.8453 77.871 11 65.1935 11 50.0968C11 44.871 12.3555 41.3871 15.9378 37.8065ZM98.0961 72.2581C99.5484 74.7742 102.163 76.2258 105.164 76.2258C109.811 76.2258 112.329 72.9355 113.878 72.9355C115.04 72.9355 115.814 73.7097 115.814 74.6774C115.814 77.6774 106.81 82.129 102.066 82.129C98.5802 82.129 94.1265 80.6774 89.7696 80.6774C86.1876 80.6774 83.283 76.8064 83.283 70.3226C83.283 65.9677 86.478 57.6452 91.8028 51.5484C98.0961 44.3871 106.035 40.5161 109.134 40.5161C112.619 40.5161 114.749 43.3226 114.749 48.0645C114.749 50.871 113.878 52.4194 113.491 53.2903C112.813 55.0323 112.91 56.871 112.232 58.5161C110.199 63.8387 104.97 69.3548 98.0961 72.2581ZM96.8374 67.9032C104.196 63.0645 108.069 55.8064 108.069 51.2581C108.069 49.7097 107.488 48.9355 106.616 48.9355C102.937 48.9355 97.1279 56.1936 96.8374 67.9032ZM148.326 22.7097C149.584 22.7097 150.068 23.3871 150.068 24.9355C150.068 26.871 147.841 31.7097 144.065 40.129C137.288 55.129 133.125 64.6129 133.125 69.1613C133.125 71.1935 134.19 72.2581 136.029 72.2581C141.839 72.2581 145.324 66.5484 147.261 66.5484C148.229 66.5484 149.003 67.3226 149.003 68.7742C149.003 70.3226 147.067 72.9355 142.904 76.129C136.417 80.9677 130.414 83 129.639 83C127.993 83 126.928 81.2581 125.476 80.5806C122.668 79.3226 120.345 78.6452 120.345 76.6129C120.345 75.8387 120.829 74.5806 120.829 73.129C120.829 72.8387 120.732 72.4516 120.732 72.1613C120.732 68.7742 123.152 63.1613 126.541 54.8387C131.576 42.4516 135.061 35.1936 135.061 32.0968C135.061 30.7419 134.868 29.7742 134.868 29.0968C134.868 28.4194 135.061 28.129 135.545 27.8387C137.094 26.9677 140.193 25.9032 144.646 24.0645C146.389 23.3871 147.551 22.7097 148.326 22.7097ZM180.851 22.7097C182.11 22.7097 182.594 23.3871 182.594 24.9355C182.594 26.871 180.367 31.7097 176.591 40.129C169.814 55.129 165.651 64.6129 165.651 69.1613C165.651 71.1935 166.716 72.2581 168.555 72.2581C174.365 72.2581 177.85 66.5484 179.786 66.5484C180.755 66.5484 181.529 67.3226 181.529 68.7742C181.529 70.3226 179.593 72.9355 175.43 76.129C168.943 80.9677 162.94 83 162.165 83C160.519 83 159.454 81.2581 158.002 80.5806C155.194 79.3226 152.87 78.6452 152.87 76.6129C152.87 75.8387 153.355 74.5806 153.355 73.129C153.355 72.8387 153.258 72.4516 153.258 72.1613C153.258 68.7742 155.678 63.1613 159.067 54.8387C164.102 42.4516 167.587 35.1936 167.587 32.0968C167.587 30.7419 167.393 29.7742 167.393 29.0968C167.393 28.4194 167.587 28.129 168.071 27.8387C169.62 26.9677 172.719 25.9032 177.172 24.0645C178.915 23.3871 180.077 22.7097 180.851 22.7097ZM212.699 61.7097C206.793 71 202.049 76.0323 199.919 77.1935C198.95 77.7742 197.982 77.9677 197.208 78.4516C194.787 80 193.238 81.2581 191.882 81.2581C189.075 81.2581 186.17 76.7097 186.17 75.1613C186.17 74.9677 186.751 70.2258 188.881 62.9677C191.882 53.0968 194.4 47.1936 196.143 45.2581C197.208 44.0968 198.273 43.9032 198.854 43.5161C200.015 42.7419 201.758 40.6129 204.275 40.6129C206.502 40.6129 208.342 45.6452 208.342 46.2258C208.342 47.1936 207.18 49.7097 205.147 54.2581C201.855 61.6129 199.531 65.871 199.531 67.6129C199.531 68.4839 199.919 68.9677 200.693 68.9677C203.888 68.9677 208.148 59.4839 215.603 47.9677C216.862 45.9355 221.509 44.0968 222.09 44.0968C224.22 44.0968 225.285 46.8065 225.285 50.1936C225.285 56.4839 222.187 63.6452 222.187 69.1613C222.187 71.6774 223.059 73.3226 223.059 74.4839C223.059 76.9032 217.153 81.5484 214.732 81.5484C212.699 81.5484 210.569 78.1613 210.569 76.9032C210.569 76.129 211.343 71.0968 212.699 61.7097ZM269.308 36.9355H266.791C263.692 36.9355 262.821 35.0968 258.851 31.8065C253.333 27.2581 250.041 25.0323 250.041 24.0645C250.041 23.2903 251.106 23.1936 253.042 23.1936C254.688 23.1936 256.044 23.1936 257.109 23.1936C260.788 23.1936 261.853 23.3871 263.402 25.4194C268.146 31.7097 270.276 35.7742 270.276 36.3548C270.276 36.6452 269.986 36.9355 269.308 36.9355ZM298.063 50.871C297.483 51.6452 297.192 52.4194 297.192 53.1936C297.192 56.3871 303.969 62.0968 303.969 68.7742C303.969 75.3548 295.449 83 285.09 83C278.699 83 275.214 81.0645 275.214 78.1613C275.214 74.6774 280.636 69.7419 282.766 69.7419C286.542 69.7419 286.929 76.6129 290.221 76.6129C291.189 76.6129 291.77 75.9355 291.77 74.5806C291.77 64.6129 284.702 62.4839 284.702 57.1613C284.702 54.8387 285.961 52.8065 288.285 50.4839C293.9 44.871 300.097 41.871 302.033 41.871C303.873 41.871 306.39 43.4194 306.39 45.0645C306.39 50.7742 305.131 52.9032 302.517 52.9032C300.678 52.9032 299.032 52.129 298.063 50.871Z" stroke="#A00007" stroke-width="22" mask="url(#path-1-outside-1_22_56)"/>
</svg>
