<svg width="132" height="32" viewBox="0 0 132 32" fill="none" xmlns="http://www.w3.org/2000/svg">
<path d="M2.19459 11.914C3.3134 8.98925 5.8092 6.06452 10.1984 3.61291C14.3724 1.24732 19.1919 0 23.7532 0C29.003 0 30.2939 0.516133 30.2939 3.31183C30.2939 4.73119 29.6054 5.46237 28.5727 5.46237C27.7121 5.46237 25.2593 3.82796 19.7513 3.82796C10.9729 3.82796 5.20677 8.21506 5.20677 14.5806C5.20677 20.8602 11.4463 26.1935 19.4501 26.1935C25.3453 26.1935 28.7448 23.3978 29.2612 23.3978C29.6915 23.3978 29.9066 23.6129 29.9066 23.914C29.9066 24.5591 29.046 25.2903 27.2817 26.3226C23.538 28.5591 19.1489 29.7204 15.0609 29.7204C6.15345 29.7204 0 24.086 0 17.3763C0 15.0538 0.602436 13.5054 2.19459 11.914ZM38.7094 27.2258C39.3549 28.3441 40.5167 28.9892 41.8507 28.9892C43.9161 28.9892 45.035 27.5269 45.7235 27.5269C46.2398 27.5269 46.5841 27.871 46.5841 28.3011C46.5841 29.6344 42.5822 31.6129 40.4737 31.6129C38.9245 31.6129 36.9451 30.9677 35.0087 30.9677C33.4167 30.9677 32.1258 29.2473 32.1258 26.3656C32.1258 24.4301 33.5458 20.7312 35.9124 18.0215C38.7094 14.8387 42.2379 13.1183 43.6149 13.1183C45.1641 13.1183 46.1107 14.3656 46.1107 16.4731C46.1107 17.7204 45.7235 18.4086 45.5513 18.7957C45.2501 19.5699 45.2931 20.3871 44.9919 21.1183C44.0883 23.4839 41.7646 25.9355 38.7094 27.2258ZM38.15 25.2903C41.4203 23.1398 43.1416 19.914 43.1416 17.8925C43.1416 17.2043 42.8834 16.8602 42.4961 16.8602C40.8609 16.8602 38.2791 20.086 38.15 25.2903ZM61.0336 5.2043C61.593 5.2043 61.8081 5.50538 61.8081 6.19355C61.8081 7.05377 60.8184 9.2043 59.1402 12.9462C56.128 19.6129 54.2777 23.828 54.2777 25.8495C54.2777 26.7527 54.751 27.2258 55.5686 27.2258C58.1505 27.2258 59.6996 24.6882 60.5602 24.6882C60.9905 24.6882 61.3348 25.0323 61.3348 25.6774C61.3348 26.3656 60.4742 27.5269 58.6238 28.9462C55.7408 31.0968 53.0728 32 52.7286 32C51.997 32 51.5237 31.2258 50.8782 30.9247C49.6303 30.3656 48.5976 30.0645 48.5976 29.1613C48.5976 28.8172 48.8127 28.2581 48.8127 27.6129C48.8127 27.4839 48.7697 27.3118 48.7697 27.1828C48.7697 25.6774 49.8455 23.1828 51.3516 19.4839C53.5892 13.9785 55.1383 10.7527 55.1383 9.37635C55.1383 8.7742 55.0523 8.34409 55.0523 8.04301C55.0523 7.74194 55.1383 7.6129 55.3535 7.48387C56.042 7.09678 57.419 6.62366 59.3984 5.80645C60.173 5.50538 60.6893 5.2043 61.0336 5.2043ZM75.4895 5.2043C76.0489 5.2043 76.2641 5.50538 76.2641 6.19355C76.2641 7.05377 75.2744 9.2043 73.5962 12.9462C70.584 19.6129 68.7336 23.828 68.7336 25.8495C68.7336 26.7527 69.207 27.2258 70.0246 27.2258C72.6064 27.2258 74.1556 24.6882 75.0162 24.6882C75.4465 24.6882 75.7908 25.0323 75.7908 25.6774C75.7908 26.3656 74.9301 27.5269 73.0798 28.9462C70.1967 31.0968 67.5288 32 67.1845 32C66.453 32 65.9796 31.2258 65.3342 30.9247C64.0863 30.3656 63.0535 30.0645 63.0535 29.1613C63.0535 28.8172 63.2687 28.2581 63.2687 27.6129C63.2687 27.4839 63.2257 27.3118 63.2257 27.1828C63.2257 25.6774 64.3014 23.1828 65.8075 19.4839C68.0451 13.9785 69.5943 10.7527 69.5943 9.37635C69.5943 8.7742 69.5082 8.34409 69.5082 8.04301C69.5082 7.74194 69.5943 7.6129 69.8094 7.48387C70.4979 7.09678 71.8749 6.62366 73.8543 5.80645C74.6289 5.50538 75.1453 5.2043 75.4895 5.2043ZM89.6439 22.5376C87.019 26.6667 84.9105 28.9032 83.9638 29.4194C83.5335 29.6774 83.1032 29.7634 82.7589 29.9785C81.6831 30.6667 80.9946 31.2258 80.3922 31.2258C79.1443 31.2258 77.8534 29.2043 77.8534 28.5161C77.8534 28.4301 78.1116 26.3226 79.0582 23.0968C80.3922 18.7097 81.511 16.086 82.2856 15.2258C82.7589 14.7097 83.2323 14.6237 83.4905 14.4516C84.0068 14.1075 84.7814 13.1613 85.9002 13.1613C86.8899 13.1613 87.7075 15.3979 87.7075 15.6559C87.7075 16.086 87.1911 17.2043 86.2875 19.2258C84.8244 22.4946 83.7917 24.3871 83.7917 25.1613C83.7917 25.5484 83.9638 25.7634 84.308 25.7634C85.7281 25.7634 87.6214 21.5484 90.9348 16.4301C91.4943 15.5269 93.5597 14.7097 93.8179 14.7097C94.7646 14.7097 95.238 15.914 95.238 17.4194C95.238 20.2151 93.861 23.3978 93.861 25.8495C93.861 26.9677 94.2482 27.6989 94.2482 28.2151C94.2482 29.2903 91.6233 31.3548 90.5476 31.3548C89.6439 31.3548 88.6972 29.8495 88.6972 29.2903C88.6972 28.9462 89.0415 26.7097 89.6439 22.5376ZM114.803 11.5269H113.685C112.308 11.5269 111.92 10.7097 110.156 9.24731C107.703 7.22581 106.24 6.23656 106.24 5.80645C106.24 5.46237 106.714 5.41936 107.574 5.41936C108.306 5.41936 108.908 5.41936 109.382 5.41936C111.017 5.41936 111.49 5.50538 112.179 6.4086C114.287 9.2043 115.234 11.0108 115.234 11.2688C115.234 11.3979 115.105 11.5269 114.803 11.5269ZM127.584 17.7204C127.326 18.0645 127.196 18.4086 127.196 18.7527C127.196 20.172 130.209 22.7097 130.209 25.6774C130.209 28.6022 126.422 32 121.818 32C118.978 32 117.428 31.1398 117.428 29.8495C117.428 28.3011 119.838 26.1075 120.785 26.1075C122.463 26.1075 122.635 29.1613 124.098 29.1613C124.529 29.1613 124.787 28.8602 124.787 28.2581C124.787 23.828 121.645 22.8817 121.645 20.5161C121.645 19.4839 122.205 18.5806 123.238 17.5484C125.733 15.0538 128.487 13.7204 129.348 13.7204C130.166 13.7204 131.284 14.4086 131.284 15.1398C131.284 17.6774 130.725 18.6237 129.563 18.6237C128.746 18.6237 128.014 18.2796 127.584 17.7204Z" fill="#FEB616"/>
</svg>
