<svg width="32" height="32" viewBox="0 0 32 32" fill="none" xmlns="http://www.w3.org/2000/svg">
<path d="M28.8646 21.8218L24.34 21.3052C23.2533 21.1805 22.1845 21.5546 21.4185 22.3206L18.1408 25.5983C13.0996 23.0332 8.9668 18.9182 6.40164 13.8591L9.69716 10.5635C10.4631 9.79755 10.8372 8.72873 10.7125 7.64209L10.1959 3.15303C9.98218 1.35384 8.46802 0 6.65103 0H3.56927C1.55633 0 -0.118152 1.67449 0.0065438 3.68744C0.950666 18.9004 13.1174 31.0493 28.3124 31.9935C30.3253 32.1182 31.9998 30.4437 31.9998 28.4307V25.3489C32.0176 23.5497 30.6638 22.0356 28.8646 21.8218Z" fill="url(#paint0_linear_16_199)"/>
<defs>
<linearGradient id="paint0_linear_16_199" x1="16" y1="0" x2="16" y2="32" gradientUnits="userSpaceOnUse">
<stop stop-color="#C4141E"/>
<stop offset="1" stop-color="#AA0C15"/>
</linearGradient>
</defs>
</svg>
