<svg width="41" height="51" viewBox="0 0 41 51" fill="none" xmlns="http://www.w3.org/2000/svg">
<path d="M20.5 0C9.7375 0 0 8.34557 0 21.2527C0 29.4946 6.27813 39.1879 18.8088 50.3585C19.7825 51.2138 21.2431 51.2138 22.2169 50.3585C34.7219 39.1879 41 29.4946 41 21.2527C41 8.34557 31.2625 0 20.5 0ZM20.5 25.9179C17.6812 25.9179 15.375 23.5853 15.375 20.7343C15.375 17.8834 17.6812 15.5508 20.5 15.5508C23.3188 15.5508 25.625 17.8834 25.625 20.7343C25.625 23.5853 23.3188 25.9179 20.5 25.9179Z" fill="url(#paint0_linear_11_483)"/>
<defs>
<linearGradient id="paint0_linear_11_483" x1="20.5" y1="0" x2="20.5" y2="51" gradientUnits="userSpaceOnUse">
<stop stop-color="#C4141E"/>
<stop offset="1" stop-color="#AA0C15"/>
</linearGradient>
</defs>
</svg>
